<svg width="704" height="193" viewBox="0 0 704 193" fill="none" xmlns="http://www.w3.org/2000/svg">
<path d="M76.3325 156.19H60.0167V145.853L49.863 156.19H12.5095L0 143.498V71.3478L12.5095 58.8411H58.1958V34.0643H76.3325V156.19ZM49.4927 139.157L58.1958 131.361V75.3487H18.1264V139.157H49.4927Z" fill="#FA5F5F"/>
<path d="M58.1958 17.0424V0H76.3325V17.0424H58.1958Z" fill="#FA5F5F"/>
<path d="M150.813 131.361L93.5228 92.206V71.3581L106.032 58.8514H154.62L167.314 71.3581V89.6656H149.908V73.1682H111.474V83.6796L168.765 122.65V143.498L156.255 156.19H105.487L92.7924 143.498V127.546H110.013V141.862H150.813V131.351V131.361Z" fill="#FA5F5F"/>
<path d="M243.739 120.48H261.331V143.498L248.821 156.19H199.864L187.354 143.498V71.3478L199.864 58.8411H248.821L261.331 71.3478V94.3658H243.739V75.3281H205.121V139.497H243.739V120.459V120.48Z" fill="#FA5F5F"/>
<path d="M278.706 156.2V58.8514H295.022V71.1832L307.532 58.8514H330.01V76.2538H307.161L296.822 86.0452V156.2H278.686H278.706Z" fill="#FA5F5F"/>
<path d="M398.462 123.39H416.228V143.508L403.534 156.2H353.671L341.161 143.508V71.3581L353.671 58.8514H403.534L416.228 71.3581V111.059H358.938V140.968H398.462V123.38V123.39ZM358.938 74.2687V100.187H398.462V74.2687H358.938Z" fill="#FA5F5F"/>
<path d="M490.205 123.39H507.971V143.508L495.277 156.2H445.414L432.904 143.508V71.3581L445.414 58.8514H495.277L507.971 71.3581V111.059H450.681V140.968H490.205V123.38V123.39ZM450.681 74.2687V100.187H490.205V74.2687H450.681Z" fill="#FA5F5F"/>
<path d="M544.018 156.2L531.324 143.508V73.8985H517.909V58.8514H531.324V34.0746H549.461V58.8514H574.479V73.8985H549.461V139.157H576.475V156.2H544.018Z" fill="#FA5F5F"/>
<path d="M590.271 156.2V34.0746H608.407V156.19H590.271V156.2Z" fill="#FA5F5F"/>
<path d="M644.074 162.361V177.223H684.874V150.934H637.737L625.227 138.427V58.8514H643.364V134.992H684.884V58.8514H703.021V180.483L690.151 192.99H639.383L626.513 180.483V162.361H644.105H644.074Z" fill="#FA5F5F"/>
</svg>
